<svg xmlns="http://www.w3.org/2000/svg" viewBox="0 0 64 64" role="img" aria-label="OpenCuria mark">
  <rect x="4" y="4" width="56" height="56" rx="14" fill="#0A0A0A"/>
  <polygon points="18,23 32,15 32,32" fill="#EFEFEF"/>
  <polygon points="32,15 46,23 32,32" fill="#BCBCBC"/>
  <polygon points="46,23 32,32 46,41" fill="#534AB7"/>
  <polygon points="32,32 32,49 46,41" fill="#433A93"/>
  <polygon points="18,23 32,32 18,41" fill="#1C1C1C"/>
  <polygon points="32,32 32,49 18,41" fill="#111111"/>
  <polygon points="18,23 32,15 46,23 46,41 32,49 18,41" fill="none" stroke="#0A0A0A" stroke-width="1.2"/>
  <line x1="18" y1="23" x2="32" y2="32" stroke="#0A0A0A" stroke-width="1"/>
  <line x1="32" y1="15" x2="32" y2="32" stroke="#0A0A0A" stroke-width="1"/>
  <line x1="46" y1="23" x2="32" y2="32" stroke="#0A0A0A" stroke-width="1"/>
  <line x1="32" y1="32" x2="46" y2="41" stroke="#0A0A0A" stroke-width="1"/>
  <line x1="32" y1="32" x2="32" y2="49" stroke="#0A0A0A" stroke-width="1"/>
  <line x1="32" y1="32" x2="18" y2="41" stroke="#0A0A0A" stroke-width="1"/>
</svg>
